<?xml version="1.0" encoding="utf-8"?>
<svg version="1.1" xmlns:xlink="http://www.w3.org/1999/xlink" width="35px" height="21px" xmlns="http://www.w3.org/2000/svg">
  <defs>
    <pattern id="BGPattern" patternUnits="userSpaceOnUse" alignment="0 0" imageRepeat="None" />
    <mask fill="white" id="Clip66">
      <path d="M 35 5.2519193694158455  L 10.5 5.2519193694158455  L 10.5 7.351663453493733  L 32.666666666666664 7.351663453493733  L 32.666666666666664 11.508172565027419  L 30.078125 19  L 9.765875498453777 19  L 6.849208275477092 0  L 0 0  L 0 2.0997440840778876  L 4.817458391189575 2.0997440840778876  L 7.734125057856242 21.000000000000004  L 31.789332389831543 21.000000000000004  L 35 11.831139259722336  L 35 5.2519193694158455  Z " fill-rule="evenodd" />
    </mask>
  </defs>
  <g transform="matrix(1 0 0 1 -1 -1 )">
    <path d="M 35 5.2519193694158455  L 10.5 5.2519193694158455  L 10.5 7.351663453493733  L 32.666666666666664 7.351663453493733  L 32.666666666666664 11.508172565027419  L 30.078125 19  L 9.765875498453777 19  L 6.849208275477092 0  L 0 0  L 0 2.0997440840778876  L 4.817458391189575 2.0997440840778876  L 7.734125057856242 21.000000000000004  L 31.789332389831543 21.000000000000004  L 35 11.831139259722336  L 35 5.2519193694158455  Z " fill-rule="nonzero" fill="rgba(78, 115, 223, 1)" stroke="none" transform="matrix(1 0 0 1 1 1 )" class="fill" />
    <path d="M 35 5.2519193694158455  L 10.5 5.2519193694158455  L 10.5 7.351663453493733  L 32.666666666666664 7.351663453493733  L 32.666666666666664 11.508172565027419  L 30.078125 19  L 9.765875498453777 19  L 6.849208275477092 0  L 0 0  L 0 2.0997440840778876  L 4.817458391189575 2.0997440840778876  L 7.734125057856242 21.000000000000004  L 31.789332389831543 21.000000000000004  L 35 11.831139259722336  L 35 5.2519193694158455  Z " stroke-width="0" stroke-dasharray="0" stroke="rgba(121, 121, 121, 1)" fill="none" transform="matrix(1 0 0 1 1 1 )" class="stroke" mask="url(#Clip66)" />
  </g>
</svg>