<?xml version="1.0" encoding="utf-8"?>
<svg version="1.1" xmlns:xlink="http://www.w3.org/1999/xlink" width="9px" height="8px" xmlns="http://www.w3.org/2000/svg">
  <defs>
    <pattern id="BGPattern" patternUnits="userSpaceOnUse" alignment="0 0" imageRepeat="None" />
    <mask fill="white" id="Clip68">
      <path d="M 4.5 0  C 3.3069428354501724 0.001207562512718141  2.1631396114826202 0.423022985458374  1.3195202350616455 1.1729068756103516  C 0.4759008586406708 1.922790765762329  0.0013585078268079087 2.9395047426223755  0 4  C 0 5.060865998268127  0.47410451620817184 6.0782827734947205  1.3180181980133057 6.828428268432617  C 2.1619318798184395 7.578573763370514  3.3065257519483566 8  4.5 8  C 5.693474248051643 8  6.838065974414349 7.578573763370514  7.681979656219482 6.828428268432617  C 8.525893338024616 6.0782827734947205  9 5.060865998268127  9 4  C 8.998660064113208 2.939499616622925  8.524122476577759 1.9227752685546875  7.680499076843262 1.1728878021240234  C 6.836875677108765 0.4230003356933594  5.69306293129921 0.0011910541215911508  4.5 0  Z M 4.5 6  C 4.05499205365777 6  3.619976744055748 5.882701888680458  3.2499661445617676 5.662939071655273  C 2.879955545067787 5.443176254630089  2.5915680192410946 5.130819737911224  2.4212708473205566 4.76536750793457  C 2.2509736754000187 4.399915277957916  2.206416173838079 3.997781425714493  2.2932329177856445 3.6098194122314453  C 2.38004966173321 3.221857398748398  2.594342026859522 2.8654918372631073  2.909010171890259 2.585786819458008  C 3.2236783169209957 2.3060818016529083  3.6245895735919476 2.115599699318409  4.061046838760376 2.0384292602539062  C 4.497504103928804 1.9612588211894035  4.949902541935444 2.000865489244461  5.36103630065918 2.152240753173828  C 5.7721700593829155 2.303616017103195  6.12357328645885 2.5599623918533325  6.370806455612183 2.8888607025146484  C 6.618039624765515 3.2177590131759644  6.75 3.604437381029129  6.75 4  C 6.749292891254299 4.530240058898926  6.512012422084808 5.0385823249816895  6.0902087688446045 5.413518905639648  C 5.668405115604401 5.788455486297607  5.0965200662612915 5.9993714588927105  4.5 6  Z " fill-rule="evenodd" />
    </mask>
  </defs>
  <g transform="matrix(1 0 0 1 -24 -24 )">
    <path d="M 4.5 0  C 3.3069428354501724 0.001207562512718141  2.1631396114826202 0.423022985458374  1.3195202350616455 1.1729068756103516  C 0.4759008586406708 1.922790765762329  0.0013585078268079087 2.9395047426223755  0 4  C 0 5.060865998268127  0.47410451620817184 6.0782827734947205  1.3180181980133057 6.828428268432617  C 2.1619318798184395 7.578573763370514  3.3065257519483566 8  4.5 8  C 5.693474248051643 8  6.838065974414349 7.578573763370514  7.681979656219482 6.828428268432617  C 8.525893338024616 6.0782827734947205  9 5.060865998268127  9 4  C 8.998660064113208 2.939499616622925  8.524122476577759 1.9227752685546875  7.680499076843262 1.1728878021240234  C 6.836875677108765 0.4230003356933594  5.69306293129921 0.0011910541215911508  4.5 0  Z M 4.5 6  C 4.05499205365777 6  3.619976744055748 5.882701888680458  3.2499661445617676 5.662939071655273  C 2.879955545067787 5.443176254630089  2.5915680192410946 5.130819737911224  2.4212708473205566 4.76536750793457  C 2.2509736754000187 4.399915277957916  2.206416173838079 3.997781425714493  2.2932329177856445 3.6098194122314453  C 2.38004966173321 3.221857398748398  2.594342026859522 2.8654918372631073  2.909010171890259 2.585786819458008  C 3.2236783169209957 2.3060818016529083  3.6245895735919476 2.115599699318409  4.061046838760376 2.0384292602539062  C 4.497504103928804 1.9612588211894035  4.949902541935444 2.000865489244461  5.36103630065918 2.152240753173828  C 5.7721700593829155 2.303616017103195  6.12357328645885 2.5599623918533325  6.370806455612183 2.8888607025146484  C 6.618039624765515 3.2177590131759644  6.75 3.604437381029129  6.75 4  C 6.749292891254299 4.530240058898926  6.512012422084808 5.0385823249816895  6.0902087688446045 5.413518905639648  C 5.668405115604401 5.788455486297607  5.0965200662612915 5.9993714588927105  4.5 6  Z " fill-rule="nonzero" fill="rgba(78, 115, 223, 1)" stroke="none" transform="matrix(1 0 0 1 24 24 )" class="fill" />
    <path d="M 4.5 0  C 3.3069428354501724 0.001207562512718141  2.1631396114826202 0.423022985458374  1.3195202350616455 1.1729068756103516  C 0.4759008586406708 1.922790765762329  0.0013585078268079087 2.9395047426223755  0 4  C 0 5.060865998268127  0.47410451620817184 6.0782827734947205  1.3180181980133057 6.828428268432617  C 2.1619318798184395 7.578573763370514  3.3065257519483566 8  4.5 8  C 5.693474248051643 8  6.838065974414349 7.578573763370514  7.681979656219482 6.828428268432617  C 8.525893338024616 6.0782827734947205  9 5.060865998268127  9 4  C 8.998660064113208 2.939499616622925  8.524122476577759 1.9227752685546875  7.680499076843262 1.1728878021240234  C 6.836875677108765 0.4230003356933594  5.69306293129921 0.0011910541215911508  4.5 0  Z " stroke-width="0" stroke-dasharray="0" stroke="rgba(121, 121, 121, 1)" fill="none" transform="matrix(1 0 0 1 24 24 )" class="stroke" mask="url(#Clip68)" />
    <path d="M 4.5 6  C 4.05499205365777 6  3.619976744055748 5.882701888680458  3.2499661445617676 5.662939071655273  C 2.879955545067787 5.443176254630089  2.5915680192410946 5.130819737911224  2.4212708473205566 4.76536750793457  C 2.2509736754000187 4.399915277957916  2.206416173838079 3.997781425714493  2.2932329177856445 3.6098194122314453  C 2.38004966173321 3.221857398748398  2.594342026859522 2.8654918372631073  2.909010171890259 2.585786819458008  C 3.2236783169209957 2.3060818016529083  3.6245895735919476 2.115599699318409  4.061046838760376 2.0384292602539062  C 4.497504103928804 1.9612588211894035  4.949902541935444 2.000865489244461  5.36103630065918 2.152240753173828  C 5.7721700593829155 2.303616017103195  6.12357328645885 2.5599623918533325  6.370806455612183 2.8888607025146484  C 6.618039624765515 3.2177590131759644  6.75 3.604437381029129  6.75 4  C 6.749292891254299 4.530240058898926  6.512012422084808 5.0385823249816895  6.0902087688446045 5.413518905639648  C 5.668405115604401 5.788455486297607  5.0965200662612915 5.9993714588927105  4.5 6  Z " stroke-width="0" stroke-dasharray="0" stroke="rgba(121, 121, 121, 1)" fill="none" transform="matrix(1 0 0 1 24 24 )" class="stroke" mask="url(#Clip68)" />
  </g>
</svg>