<?xml version="1.0" encoding="utf-8"?>
<svg version="1.1" xmlns:xlink="http://www.w3.org/1999/xlink" width="12px" height="17px" xmlns="http://www.w3.org/2000/svg">
  <defs>
    <pattern id="BGPattern" patternUnits="userSpaceOnUse" alignment="0 0" imageRepeat="None" />
    <mask fill="white" id="Clip81">
      <path d="M 12 9.078439231332293  C 11.996471625686494 8.13059107475053  11.32608137758206 7.341318661273719  10.408704069740523 7.229595114496231  C 10.408704069740523 7.229595114496231  10.408704069740523 4.537417787898114  10.408704069740523 4.537417787898114  C 10.415760818367536 3.3192707195070397  9.939429445077147 2.147975435000019  9.089091234733582 1.293830846186364  C 8.266980058856486 0.45770618482666314  7.190826716853923 0  6.051161857493218 0  C 6.033519986188574 0  6.012349525268126 0  5.994707653963481 0  C 3.5636577343446874 0.0036039855444944028  1.587768417418046 2.036251802296821  1.587768417418046 4.537417787898114  C 1.587768417418046 4.537417787898114  1.587768417418046 7.229595114496231  1.587768417418046 7.229595114496231  C 0.6703911095765083 7.341318661273719  0 8.126987075511627  0 9.078439231332293  C 0 9.078439231332293  0 15.125927544788766  0 15.125927544788766  C 0 16.153063409664153  0.8044691699756542 17  1.8100558343404165 17  C 1.8100558343404165 17  10.189944434853178 17  10.189944434853178 17  C 11.19553109921794 17  12 16.153063409664153  12 15.125927544788766  C 12 15.125927544788766  12 9.078439231332293  12 9.078439231332293  Z M 2.2899146799880405 4.537417787898114  C 2.2899146799880405 4.537417787898114  2.293443269603844 4.537417787898114  2.293443269603844 4.537417787898114  C 2.293443269603844 2.4326902062838127  3.9553074926626803 0.7099851691820215  5.998236243579285 0.7099851691820215  C 5.998236243579285 0.7099851691820215  6.001764294807902 0.7099851691820215  6.001764294807902 0.7099851691820215  C 6.972067216563374 0.7063811836375271  7.903557806093755 1.0992156434317724  8.591590786974907 1.7983888148970806  C 9.307850735024132 2.5227899122941517  9.706558453340305 3.5102819230227267  9.699501704713294 4.537417787898114  C 9.699501704713294 4.537417787898114  9.699501704713294 7.2331987700322955  9.699501704713294 7.2331987700322955  L 8.923258828921728 7.2331987700322955  C 8.923258828921728 7.2331987700322955  8.923258828921728 4.537417787898114  8.923258828921728 4.537417787898114  C 8.930315577548742 3.7193130539923676  8.612761046000161 2.933644244496193  8.044692776530914 2.3570065659696597  C 7.508379895599546 1.8092007782435098  6.781535221828083 1.4992579091765326  6.0229347557283495 1.4992579091765326  C 6.0229347557283495 1.4992579091765326  6.001764294807902 1.4992579091765326  6.001764294807902 1.4992579091765326  C 4.3787121347805655 1.4992579091765326  3.0661570173924186 2.861564534680377  3.0661570173924186 4.533813857399778  C 3.0661570173924186 4.533813857399778  3.0661570173924186 7.2331987700322955  3.0661570173924186 7.2331987700322955  L 2.2899146799880405 7.2331987700322955  L 2.2899146799880405 4.537417787898114  Z M 7.554248969616658 2.872376326175386  C 7.984710622720154 3.312062549177811  8.228168238204374 3.913928325487527  8.221111489577362 4.537417787898114  C 8.221111489577362 4.537417787898114  8.221111489577362 7.2331987700322955  8.221111489577362 7.2331987700322955  L 3.7753604591940206 7.2331987700322955  C 3.7753604591940206 7.2331987700322955  3.7753604591940206 4.537417787898114  3.7753604591940206 4.537417787898114  C 3.7753604591940206 3.2616068691657047  4.770361893098558 2.223659075314172  6.005292884423705 2.223659075314172  C 6.005292884423705 2.223659075314172  6.026463345344154 2.223659075314172  6.026463345344154 2.223659075314172  C 6.598060002534009 2.223659075314172  7.148485929609824 2.45791799473444  7.554248969616658 2.872376326175386  Z M 11.32608137758206 9.096459158786248  C 11.32608137758206 9.096459158786248  11.32608137758206 15.136739061321503  11.32608137758206 15.136739061321503  C 11.32608137758206 15.767436522209898  10.825051801820395 16.279202901841835  10.207586306157822 16.279202901841835  C 10.207586306157822 16.279202901841835  1.8241693852228513 16.279202901841835  1.8241693852228513 16.279202901841835  C 1.206703889560278 16.279202901841835  0.7056748521857982 15.767436522209898  0.7056748521857982 15.136739061321503  C 0.7056748521857982 15.136739061321503  0.7056748521857982 9.096459158786248  0.7056748521857982 9.096459158786248  C 0.7056748521857982 8.465761697897852  1.206703889560278 7.953995868190463  1.8241693852228513 7.953995868190463  C 1.8241693852228513 7.953995868190463  10.207586306157822 7.953995868190463  10.207586306157822 7.953995868190463  C 10.825051801820395 7.953995868190463  11.32608137758206 8.465761697897852  11.32608137758206 9.096459158786248  Z " fill-rule="evenodd" />
    </mask>
  </defs>
  <g transform="matrix(1 0 0 1 -2 0 )">
    <path d="M 12 9.078439231332293  C 11.996471625686494 8.13059107475053  11.32608137758206 7.341318661273719  10.408704069740523 7.229595114496231  C 10.408704069740523 7.229595114496231  10.408704069740523 4.537417787898114  10.408704069740523 4.537417787898114  C 10.415760818367536 3.3192707195070397  9.939429445077147 2.147975435000019  9.089091234733582 1.293830846186364  C 8.266980058856486 0.45770618482666314  7.190826716853923 0  6.051161857493218 0  C 6.033519986188574 0  6.012349525268126 0  5.994707653963481 0  C 3.5636577343446874 0.0036039855444944028  1.587768417418046 2.036251802296821  1.587768417418046 4.537417787898114  C 1.587768417418046 4.537417787898114  1.587768417418046 7.229595114496231  1.587768417418046 7.229595114496231  C 0.6703911095765083 7.341318661273719  0 8.126987075511627  0 9.078439231332293  C 0 9.078439231332293  0 15.125927544788766  0 15.125927544788766  C 0 16.153063409664153  0.8044691699756542 17  1.8100558343404165 17  C 1.8100558343404165 17  10.189944434853178 17  10.189944434853178 17  C 11.19553109921794 17  12 16.153063409664153  12 15.125927544788766  C 12 15.125927544788766  12 9.078439231332293  12 9.078439231332293  Z M 2.2899146799880405 4.537417787898114  C 2.2899146799880405 4.537417787898114  2.293443269603844 4.537417787898114  2.293443269603844 4.537417787898114  C 2.293443269603844 2.4326902062838127  3.9553074926626803 0.7099851691820215  5.998236243579285 0.7099851691820215  C 5.998236243579285 0.7099851691820215  6.001764294807902 0.7099851691820215  6.001764294807902 0.7099851691820215  C 6.972067216563374 0.7063811836375271  7.903557806093755 1.0992156434317724  8.591590786974907 1.7983888148970806  C 9.307850735024132 2.5227899122941517  9.706558453340305 3.5102819230227267  9.699501704713294 4.537417787898114  C 9.699501704713294 4.537417787898114  9.699501704713294 7.2331987700322955  9.699501704713294 7.2331987700322955  L 8.923258828921728 7.2331987700322955  C 8.923258828921728 7.2331987700322955  8.923258828921728 4.537417787898114  8.923258828921728 4.537417787898114  C 8.930315577548742 3.7193130539923676  8.612761046000161 2.933644244496193  8.044692776530914 2.3570065659696597  C 7.508379895599546 1.8092007782435098  6.781535221828083 1.4992579091765326  6.0229347557283495 1.4992579091765326  C 6.0229347557283495 1.4992579091765326  6.001764294807902 1.4992579091765326  6.001764294807902 1.4992579091765326  C 4.3787121347805655 1.4992579091765326  3.0661570173924186 2.861564534680377  3.0661570173924186 4.533813857399778  C 3.0661570173924186 4.533813857399778  3.0661570173924186 7.2331987700322955  3.0661570173924186 7.2331987700322955  L 2.2899146799880405 7.2331987700322955  L 2.2899146799880405 4.537417787898114  Z M 7.554248969616658 2.872376326175386  C 7.984710622720154 3.312062549177811  8.228168238204374 3.913928325487527  8.221111489577362 4.537417787898114  C 8.221111489577362 4.537417787898114  8.221111489577362 7.2331987700322955  8.221111489577362 7.2331987700322955  L 3.7753604591940206 7.2331987700322955  C 3.7753604591940206 7.2331987700322955  3.7753604591940206 4.537417787898114  3.7753604591940206 4.537417787898114  C 3.7753604591940206 3.2616068691657047  4.770361893098558 2.223659075314172  6.005292884423705 2.223659075314172  C 6.005292884423705 2.223659075314172  6.026463345344154 2.223659075314172  6.026463345344154 2.223659075314172  C 6.598060002534009 2.223659075314172  7.148485929609824 2.45791799473444  7.554248969616658 2.872376326175386  Z M 11.32608137758206 9.096459158786248  C 11.32608137758206 9.096459158786248  11.32608137758206 15.136739061321503  11.32608137758206 15.136739061321503  C 11.32608137758206 15.767436522209898  10.825051801820395 16.279202901841835  10.207586306157822 16.279202901841835  C 10.207586306157822 16.279202901841835  1.8241693852228513 16.279202901841835  1.8241693852228513 16.279202901841835  C 1.206703889560278 16.279202901841835  0.7056748521857982 15.767436522209898  0.7056748521857982 15.136739061321503  C 0.7056748521857982 15.136739061321503  0.7056748521857982 9.096459158786248  0.7056748521857982 9.096459158786248  C 0.7056748521857982 8.465761697897852  1.206703889560278 7.953995868190463  1.8241693852228513 7.953995868190463  C 1.8241693852228513 7.953995868190463  10.207586306157822 7.953995868190463  10.207586306157822 7.953995868190463  C 10.825051801820395 7.953995868190463  11.32608137758206 8.465761697897852  11.32608137758206 9.096459158786248  Z " fill-rule="nonzero" fill="rgba(0, 0, 0, 1)" stroke="none" transform="matrix(1 0 0 1 2 0 )" class="fill" />
    <path d="M 12 9.078439231332293  C 11.996471625686494 8.13059107475053  11.32608137758206 7.341318661273719  10.408704069740523 7.229595114496231  C 10.408704069740523 7.229595114496231  10.408704069740523 4.537417787898114  10.408704069740523 4.537417787898114  C 10.415760818367536 3.3192707195070397  9.939429445077147 2.147975435000019  9.089091234733582 1.293830846186364  C 8.266980058856486 0.45770618482666314  7.190826716853923 0  6.051161857493218 0  C 6.033519986188574 0  6.012349525268126 0  5.994707653963481 0  C 3.5636577343446874 0.0036039855444944028  1.587768417418046 2.036251802296821  1.587768417418046 4.537417787898114  C 1.587768417418046 4.537417787898114  1.587768417418046 7.229595114496231  1.587768417418046 7.229595114496231  C 0.6703911095765083 7.341318661273719  0 8.126987075511627  0 9.078439231332293  C 0 9.078439231332293  0 15.125927544788766  0 15.125927544788766  C 0 16.153063409664153  0.8044691699756542 17  1.8100558343404165 17  C 1.8100558343404165 17  10.189944434853178 17  10.189944434853178 17  C 11.19553109921794 17  12 16.153063409664153  12 15.125927544788766  C 12 15.125927544788766  12 9.078439231332293  12 9.078439231332293  Z " stroke-width="0" stroke-dasharray="0" stroke="rgba(121, 121, 121, 1)" fill="none" transform="matrix(1 0 0 1 2 0 )" class="stroke" mask="url(#Clip81)" />
    <path d="M 2.2899146799880405 4.537417787898114  C 2.2899146799880405 4.537417787898114  2.293443269603844 4.537417787898114  2.293443269603844 4.537417787898114  C 2.293443269603844 2.4326902062838127  3.9553074926626803 0.7099851691820215  5.998236243579285 0.7099851691820215  C 5.998236243579285 0.7099851691820215  6.001764294807902 0.7099851691820215  6.001764294807902 0.7099851691820215  C 6.972067216563374 0.7063811836375271  7.903557806093755 1.0992156434317724  8.591590786974907 1.7983888148970806  C 9.307850735024132 2.5227899122941517  9.706558453340305 3.5102819230227267  9.699501704713294 4.537417787898114  C 9.699501704713294 4.537417787898114  9.699501704713294 7.2331987700322955  9.699501704713294 7.2331987700322955  L 8.923258828921728 7.2331987700322955  C 8.923258828921728 7.2331987700322955  8.923258828921728 4.537417787898114  8.923258828921728 4.537417787898114  C 8.930315577548742 3.7193130539923676  8.612761046000161 2.933644244496193  8.044692776530914 2.3570065659696597  C 7.508379895599546 1.8092007782435098  6.781535221828083 1.4992579091765326  6.0229347557283495 1.4992579091765326  C 6.0229347557283495 1.4992579091765326  6.001764294807902 1.4992579091765326  6.001764294807902 1.4992579091765326  C 4.3787121347805655 1.4992579091765326  3.0661570173924186 2.861564534680377  3.0661570173924186 4.533813857399778  C 3.0661570173924186 4.533813857399778  3.0661570173924186 7.2331987700322955  3.0661570173924186 7.2331987700322955  L 2.2899146799880405 7.2331987700322955  L 2.2899146799880405 4.537417787898114  Z " stroke-width="0" stroke-dasharray="0" stroke="rgba(121, 121, 121, 1)" fill="none" transform="matrix(1 0 0 1 2 0 )" class="stroke" mask="url(#Clip81)" />
    <path d="M 7.554248969616658 2.872376326175386  C 7.984710622720154 3.312062549177811  8.228168238204374 3.913928325487527  8.221111489577362 4.537417787898114  C 8.221111489577362 4.537417787898114  8.221111489577362 7.2331987700322955  8.221111489577362 7.2331987700322955  L 3.7753604591940206 7.2331987700322955  C 3.7753604591940206 7.2331987700322955  3.7753604591940206 4.537417787898114  3.7753604591940206 4.537417787898114  C 3.7753604591940206 3.2616068691657047  4.770361893098558 2.223659075314172  6.005292884423705 2.223659075314172  C 6.005292884423705 2.223659075314172  6.026463345344154 2.223659075314172  6.026463345344154 2.223659075314172  C 6.598060002534009 2.223659075314172  7.148485929609824 2.45791799473444  7.554248969616658 2.872376326175386  Z " stroke-width="0" stroke-dasharray="0" stroke="rgba(121, 121, 121, 1)" fill="none" transform="matrix(1 0 0 1 2 0 )" class="stroke" mask="url(#Clip81)" />
    <path d="M 11.32608137758206 9.096459158786248  C 11.32608137758206 9.096459158786248  11.32608137758206 15.136739061321503  11.32608137758206 15.136739061321503  C 11.32608137758206 15.767436522209898  10.825051801820395 16.279202901841835  10.207586306157822 16.279202901841835  C 10.207586306157822 16.279202901841835  1.8241693852228513 16.279202901841835  1.8241693852228513 16.279202901841835  C 1.206703889560278 16.279202901841835  0.7056748521857982 15.767436522209898  0.7056748521857982 15.136739061321503  C 0.7056748521857982 15.136739061321503  0.7056748521857982 9.096459158786248  0.7056748521857982 9.096459158786248  C 0.7056748521857982 8.465761697897852  1.206703889560278 7.953995868190463  1.8241693852228513 7.953995868190463  C 1.8241693852228513 7.953995868190463  10.207586306157822 7.953995868190463  10.207586306157822 7.953995868190463  C 10.825051801820395 7.953995868190463  11.32608137758206 8.465761697897852  11.32608137758206 9.096459158786248  Z " stroke-width="0" stroke-dasharray="0" stroke="rgba(121, 121, 121, 1)" fill="none" transform="matrix(1 0 0 1 2 0 )" class="stroke" mask="url(#Clip81)" />
  </g>
</svg>