<?xml version="1.0" encoding="utf-8"?>
<svg version="1.1" xmlns:xlink="http://www.w3.org/1999/xlink" width="8px" height="8px" xmlns="http://www.w3.org/2000/svg">
  <defs>
    <pattern id="BGPattern" patternUnits="userSpaceOnUse" alignment="0 0" imageRepeat="None" />
    <mask fill="white" id="Clip84">
      <path d="M 4 8  C 5.099018055115616 8  6.050554323725056 7.605815831987076  6.828254672157112 6.828090848617315  C 7.605701615457713 6.050492571826792  8 5.099052868320188  8 3.999873293420761  C 8 2.901073838259052  7.60582831802344 1.949507428173208  6.828127969591384 1.1716557382242074  C 6.050427621159328 0.3941841680129241  5.098891352549889 0  4 0  C 2.900855242318657 0  1.9494456762749446 0.3941841680129241  1.1718720304086159 1.1717824448034464  C 0.394298384542287 1.949380721593969  0 2.9009471316798128  0 3.999873293420761  C 0 5.099052868320188  0.394298384542287 6.050619278406032  1.1718720304086159 6.828217555196554  C 1.9496990814063986 7.605689125407837  2.901235350015838 8  4 8  Z M 0.9732024073487489 3.999873293420761  C 0.9732024073487489 3.1567677151636104  1.263351282863478 2.4567138648674334  1.8601203674374407 1.8599258766511453  C 2.456762749445676 1.2632645950140962  3.156667722521381 0.9732332351357345  4 0.9732332351357345  C 4.843205574912892 0.9732332351357345  5.5432372505543235 1.2632645950140962  6.1400063351282865 1.8599258766511453  C 6.736648717136522 2.4567138648674334  7.026797592651251 3.1567677151636104  7.026797592651251 3.999873293420761  C 7.026797592651251 4.8432322848363905  6.736648717136522 5.543159428553327  6.1400063351282865 6.1399474167696155  C 5.5432372505543235 6.736735404985904  4.843205574912892 7.026766764864266  4 7.026766764864266  C 3.156921127652835 7.026766764864266  2.45701615457713 6.736608698406664  1.8601203674374407 6.1399474167696155  C 1.263351282863478 5.543286135132567  0.9732024073487489 4.8432322848363905  0.9732024073487489 3.999873293420761  Z " fill-rule="evenodd" />
    </mask>
  </defs>
  <g transform="matrix(1 0 0 1 -4 0 )">
    <path d="M 4 8  C 5.099018055115616 8  6.050554323725056 7.605815831987076  6.828254672157112 6.828090848617315  C 7.605701615457713 6.050492571826792  8 5.099052868320188  8 3.999873293420761  C 8 2.901073838259052  7.60582831802344 1.949507428173208  6.828127969591384 1.1716557382242074  C 6.050427621159328 0.3941841680129241  5.098891352549889 0  4 0  C 2.900855242318657 0  1.9494456762749446 0.3941841680129241  1.1718720304086159 1.1717824448034464  C 0.394298384542287 1.949380721593969  0 2.9009471316798128  0 3.999873293420761  C 0 5.099052868320188  0.394298384542287 6.050619278406032  1.1718720304086159 6.828217555196554  C 1.9496990814063986 7.605689125407837  2.901235350015838 8  4 8  Z M 0.9732024073487489 3.999873293420761  C 0.9732024073487489 3.1567677151636104  1.263351282863478 2.4567138648674334  1.8601203674374407 1.8599258766511453  C 2.456762749445676 1.2632645950140962  3.156667722521381 0.9732332351357345  4 0.9732332351357345  C 4.843205574912892 0.9732332351357345  5.5432372505543235 1.2632645950140962  6.1400063351282865 1.8599258766511453  C 6.736648717136522 2.4567138648674334  7.026797592651251 3.1567677151636104  7.026797592651251 3.999873293420761  C 7.026797592651251 4.8432322848363905  6.736648717136522 5.543159428553327  6.1400063351282865 6.1399474167696155  C 5.5432372505543235 6.736735404985904  4.843205574912892 7.026766764864266  4 7.026766764864266  C 3.156921127652835 7.026766764864266  2.45701615457713 6.736608698406664  1.8601203674374407 6.1399474167696155  C 1.263351282863478 5.543286135132567  0.9732024073487489 4.8432322848363905  0.9732024073487489 3.999873293420761  Z " fill-rule="nonzero" fill="rgba(0, 0, 0, 1)" stroke="none" transform="matrix(1 0 0 1 4 0 )" class="fill" />
    <path d="M 4 8  C 5.099018055115616 8  6.050554323725056 7.605815831987076  6.828254672157112 6.828090848617315  C 7.605701615457713 6.050492571826792  8 5.099052868320188  8 3.999873293420761  C 8 2.901073838259052  7.60582831802344 1.949507428173208  6.828127969591384 1.1716557382242074  C 6.050427621159328 0.3941841680129241  5.098891352549889 0  4 0  C 2.900855242318657 0  1.9494456762749446 0.3941841680129241  1.1718720304086159 1.1717824448034464  C 0.394298384542287 1.949380721593969  0 2.9009471316798128  0 3.999873293420761  C 0 5.099052868320188  0.394298384542287 6.050619278406032  1.1718720304086159 6.828217555196554  C 1.9496990814063986 7.605689125407837  2.901235350015838 8  4 8  Z " stroke-width="0" stroke-dasharray="0" stroke="rgba(121, 121, 121, 1)" fill="none" transform="matrix(1 0 0 1 4 0 )" class="stroke" mask="url(#Clip84)" />
    <path d="M 0.9732024073487489 3.999873293420761  C 0.9732024073487489 3.1567677151636104  1.263351282863478 2.4567138648674334  1.8601203674374407 1.8599258766511453  C 2.456762749445676 1.2632645950140962  3.156667722521381 0.9732332351357345  4 0.9732332351357345  C 4.843205574912892 0.9732332351357345  5.5432372505543235 1.2632645950140962  6.1400063351282865 1.8599258766511453  C 6.736648717136522 2.4567138648674334  7.026797592651251 3.1567677151636104  7.026797592651251 3.999873293420761  C 7.026797592651251 4.8432322848363905  6.736648717136522 5.543159428553327  6.1400063351282865 6.1399474167696155  C 5.5432372505543235 6.736735404985904  4.843205574912892 7.026766764864266  4 7.026766764864266  C 3.156921127652835 7.026766764864266  2.45701615457713 6.736608698406664  1.8601203674374407 6.1399474167696155  C 1.263351282863478 5.543286135132567  0.9732024073487489 4.8432322848363905  0.9732024073487489 3.999873293420761  Z " stroke-width="0" stroke-dasharray="0" stroke="rgba(121, 121, 121, 1)" fill="none" transform="matrix(1 0 0 1 4 0 )" class="stroke" mask="url(#Clip84)" />
  </g>
</svg>