<?xml version="1.0" encoding="utf-8"?>
<svg version="1.1" xmlns:xlink="http://www.w3.org/1999/xlink" width="13px" height="8px" xmlns="http://www.w3.org/2000/svg">
  <defs>
    <pattern id="BGPattern" patternUnits="userSpaceOnUse" alignment="0 0" imageRepeat="None" />
    <mask fill="white" id="Clip85">
      <path d="M 12.968496808530094 4.424504493867973  C 12.947455061483412 4.122965186128411  12.904896003983657 3.794034769597028  12.842246282714854 3.4466860490857303  C 12.77900213983942 3.0967399452932454  12.69756933286548 2.765920394338759  12.600087788283922 2.4635546569459406  C 12.499277575580226 2.151035286825366  12.362446718118093 1.8424121069249104  12.193042778499185 1.546658008530232  C 12.017457037018964 1.239687716760873  11.811081441922564 0.9723874031032778  11.579503264626808 0.7524314113254327  C 11.337344784707593 0.5223217291706636  11.040858101451908 0.33731309563120765  10.698008303308521 0.20236426157410822  C 10.356347246796384 0.06812376284884662  9.9777145783419 0.00011806549683436887  9.57269052800995 0.00011806549683436887  C 9.413629116567167 0.00011806549683436887  9.259798452731497 0.06493605208348707  8.9627174131719 0.25702858660842104  C 8.779880037190354 0.375448287139439  8.566014960586719 0.5124042418488687  8.327303985222306 0.663882288699656  C 8.123187095002598 0.7930459566487477  7.846672275362583 0.9140630764916837  7.505130127841689 1.0236278575539781  C 7.17190957806756 1.1307132415643126  6.833577218700991 1.1850233917265602  6.499524480128756 1.1850233917265602  C 6.165709530515573 1.1850233917265602  5.827377142125574 1.1307132415643126  5.493918832415823 1.0236278575539781  C 5.152733295774932 0.9141811347823721  4.876099625190537 0.7931640221455821  4.672339374874262 0.6640003541964905  C 4.435887089874828 0.5139390933077156  4.22190316232681 0.3769831241859938  4.036331547085611 0.2569105211115867  C 3.7394882674616388 0.06481798658665273  3.585657574602538 0  3.4265961921831853 0  C 3.0214532618834244 0  2.6429394443733196 0.06812377726113873  2.301397296852424 0.2024823270709426  C 1.9587852005978006 0.3371950445466654  1.6621797244445933 0.5222036780861214  1.4197834555663258 0.7525494768222671  C 1.1882052782705708 0.9726235629215307  0.9818296541507398 1.2398058110822916  0.8063628216617591 1.546658008530232  C 0.6371966129550445 1.8424121069249104  0.5002469045485305 2.150917221328532  0.3994366918448342 2.4636727224427752  C 0.3020739909517985 2.766038459835594  0.22064122025714653 3.0967399452932454  0.15739707738171443 3.4466860490857303  C 0.09462845437752619 3.7935625076096904  0.052188313124869976 4.122611018462492  0.03114656607818701 4.424858690358477  C 0.010461437167364706 4.720376628934901  0 5.027937248188432  0 5.338685635856491  C 0 6.146489765197242  0.2585639299888436 6.800454552162812  0.768440111930062 7.282752106731209  C 1.2720156555772992 7.75867412447055  1.9382189951899336 8  2.748623735757265 8  C 2.748623735757265 8  10.251376264242735 8  10.251376264242735 8  C 11.061543244874445 8  11.727746584487079 7.75867412447055  12.231441008102127 7.282752106731209  C 12.741436070011156 6.8008087774779  13 6.146607888343246  13 5.338567570359657  C 12.999881127642336 5.026756593220089  12.989300810152871 4.719195973966558  12.968496808530094 4.424504493867973  Z M 11.601852698575268 6.625717616847946  C 11.269107668672385 6.940244100414705  10.827349708286848 7.093138918815213  10.251257384274924 7.093138918815213  C 10.251257384274924 7.093138918815213  2.748623735757265 7.093138918815213  2.748623735757265 7.093138918815213  C 2.17241253177753 7.093138918815213  1.7306546004154226 6.940244100414705  1.3980284214569196 6.625835682344781  C 1.0717029098158275 6.317330539116575  0.9131170327560033 5.896190911908381  0.9131170327560033 5.338685635856491  C 0.9131170327560033 5.048716775631282  0.9227462956369765 4.7624079458079365  0.9420048649340673 4.487551469177526  C 0.9607878853364846 4.217889903232411  0.9991861221952829 3.9216635140258123  1.0561296340325914 3.606900928289969  C 1.1123598515513193 3.296034475125076  1.183925599429376 3.0042946612719343  1.2690436563820253 2.740182116028867  C 1.3507141725005845 2.4869316253191456  1.4621047386187433 2.236160495630654  1.600243246703367 1.9945985035198277  C 1.7320811164940098 1.7643707702805165  1.8837719699325128 1.5668472084889091  2.051154964610348 1.4076949187561798  C 2.207719867705671 1.2588143416603328  2.4050606287835836 1.136970748927264  2.637589845821826 1.0455880399651705  C 2.8526436930801427 0.9610531442317625  3.0943266821515447 0.9147714771292201  3.356694771110339 0.9078056051594622  C 3.3886734751956302 0.924688978412923  3.445616987032939 0.9569208374302676  3.537867842054246 1.0166619932407504  C 3.7255793257394703 1.1381513750710237  3.941940852643708 1.2767602971791572  4.1811273478793645 1.4284744461990289  C 4.450747114874628 1.5991971402092342  4.7981143808182605 1.75339067907492  5.21312434844633 1.8864505084195458  C 5.637406953563655 2.022698077354115  6.070130036395559 2.0918844729113477  6.499643360096567 2.0918844729113477  C 6.929156712821005 2.0918844729113477  7.36199864659729 2.022698077354115  7.786043491778994 1.8865685739163802  C 8.201410070287066 1.75327264240267  8.548658514309748 1.5991971546215262  8.818634892185013 1.4282383152053602  C 9.063408745907786 1.272864150195915  9.273707394453663 1.1382694405678582  9.461418878138888 1.0166619932407504  C 9.553669733160195 0.9570389245455402  9.610613244997504 0.924688978412923  9.642591949082796 0.9078056051594622  C 9.9050789180094 0.9147714771292201  10.146761878057372 0.9610531442317625  10.36193463430693 1.0455880399651705  C 10.594344985889077 1.136970748927264  10.791685688920131 1.258932392744875  10.948250635550597 1.4076949187561798  C 11.115633630228432 1.566729157404367  11.267324483666936 1.7642527191959738  11.399162353457578 1.994716569016662  C 11.537419770533443 2.2361604956306538  11.648929151316695 2.48704969081598  11.730480823746731 2.7400640505320326  C 11.815717753411333 3.0045307634410188  11.887402381257202 3.2961525406219097  11.943513726063975 3.606782862793134  C 12.000338336165902 3.9221357760131497  12.038855445736653 4.218480201892  12.0576384951625 4.487669534674361  C 12.077015937171545 4.76169955282693  12.086764094886332 5.047890317153441  12.086882967243996 5.338685635856491  C 12.086764094886332 5.896308977405215  11.928178210216362 6.317330539116575  11.601852698575268 6.625717616847946  Z " fill-rule="evenodd" />
    </mask>
  </defs>
  <g transform="matrix(1 0 0 1 -1 -8 )">
    <path d="M 12.968496808530094 4.424504493867973  C 12.947455061483412 4.122965186128411  12.904896003983657 3.794034769597028  12.842246282714854 3.4466860490857303  C 12.77900213983942 3.0967399452932454  12.69756933286548 2.765920394338759  12.600087788283922 2.4635546569459406  C 12.499277575580226 2.151035286825366  12.362446718118093 1.8424121069249104  12.193042778499185 1.546658008530232  C 12.017457037018964 1.239687716760873  11.811081441922564 0.9723874031032778  11.579503264626808 0.7524314113254327  C 11.337344784707593 0.5223217291706636  11.040858101451908 0.33731309563120765  10.698008303308521 0.20236426157410822  C 10.356347246796384 0.06812376284884662  9.9777145783419 0.00011806549683436887  9.57269052800995 0.00011806549683436887  C 9.413629116567167 0.00011806549683436887  9.259798452731497 0.06493605208348707  8.9627174131719 0.25702858660842104  C 8.779880037190354 0.375448287139439  8.566014960586719 0.5124042418488687  8.327303985222306 0.663882288699656  C 8.123187095002598 0.7930459566487477  7.846672275362583 0.9140630764916837  7.505130127841689 1.0236278575539781  C 7.17190957806756 1.1307132415643126  6.833577218700991 1.1850233917265602  6.499524480128756 1.1850233917265602  C 6.165709530515573 1.1850233917265602  5.827377142125574 1.1307132415643126  5.493918832415823 1.0236278575539781  C 5.152733295774932 0.9141811347823721  4.876099625190537 0.7931640221455821  4.672339374874262 0.6640003541964905  C 4.435887089874828 0.5139390933077156  4.22190316232681 0.3769831241859938  4.036331547085611 0.2569105211115867  C 3.7394882674616388 0.06481798658665273  3.585657574602538 0  3.4265961921831853 0  C 3.0214532618834244 0  2.6429394443733196 0.06812377726113873  2.301397296852424 0.2024823270709426  C 1.9587852005978006 0.3371950445466654  1.6621797244445933 0.5222036780861214  1.4197834555663258 0.7525494768222671  C 1.1882052782705708 0.9726235629215307  0.9818296541507398 1.2398058110822916  0.8063628216617591 1.546658008530232  C 0.6371966129550445 1.8424121069249104  0.5002469045485305 2.150917221328532  0.3994366918448342 2.4636727224427752  C 0.3020739909517985 2.766038459835594  0.22064122025714653 3.0967399452932454  0.15739707738171443 3.4466860490857303  C 0.09462845437752619 3.7935625076096904  0.052188313124869976 4.122611018462492  0.03114656607818701 4.424858690358477  C 0.010461437167364706 4.720376628934901  0 5.027937248188432  0 5.338685635856491  C 0 6.146489765197242  0.2585639299888436 6.800454552162812  0.768440111930062 7.282752106731209  C 1.2720156555772992 7.75867412447055  1.9382189951899336 8  2.748623735757265 8  C 2.748623735757265 8  10.251376264242735 8  10.251376264242735 8  C 11.061543244874445 8  11.727746584487079 7.75867412447055  12.231441008102127 7.282752106731209  C 12.741436070011156 6.8008087774779  13 6.146607888343246  13 5.338567570359657  C 12.999881127642336 5.026756593220089  12.989300810152871 4.719195973966558  12.968496808530094 4.424504493867973  Z M 11.601852698575268 6.625717616847946  C 11.269107668672385 6.940244100414705  10.827349708286848 7.093138918815213  10.251257384274924 7.093138918815213  C 10.251257384274924 7.093138918815213  2.748623735757265 7.093138918815213  2.748623735757265 7.093138918815213  C 2.17241253177753 7.093138918815213  1.7306546004154226 6.940244100414705  1.3980284214569196 6.625835682344781  C 1.0717029098158275 6.317330539116575  0.9131170327560033 5.896190911908381  0.9131170327560033 5.338685635856491  C 0.9131170327560033 5.048716775631282  0.9227462956369765 4.7624079458079365  0.9420048649340673 4.487551469177526  C 0.9607878853364846 4.217889903232411  0.9991861221952829 3.9216635140258123  1.0561296340325914 3.606900928289969  C 1.1123598515513193 3.296034475125076  1.183925599429376 3.0042946612719343  1.2690436563820253 2.740182116028867  C 1.3507141725005845 2.4869316253191456  1.4621047386187433 2.236160495630654  1.600243246703367 1.9945985035198277  C 1.7320811164940098 1.7643707702805165  1.8837719699325128 1.5668472084889091  2.051154964610348 1.4076949187561798  C 2.207719867705671 1.2588143416603328  2.4050606287835836 1.136970748927264  2.637589845821826 1.0455880399651705  C 2.8526436930801427 0.9610531442317625  3.0943266821515447 0.9147714771292201  3.356694771110339 0.9078056051594622  C 3.3886734751956302 0.924688978412923  3.445616987032939 0.9569208374302676  3.537867842054246 1.0166619932407504  C 3.7255793257394703 1.1381513750710237  3.941940852643708 1.2767602971791572  4.1811273478793645 1.4284744461990289  C 4.450747114874628 1.5991971402092342  4.7981143808182605 1.75339067907492  5.21312434844633 1.8864505084195458  C 5.637406953563655 2.022698077354115  6.070130036395559 2.0918844729113477  6.499643360096567 2.0918844729113477  C 6.929156712821005 2.0918844729113477  7.36199864659729 2.022698077354115  7.786043491778994 1.8865685739163802  C 8.201410070287066 1.75327264240267  8.548658514309748 1.5991971546215262  8.818634892185013 1.4282383152053602  C 9.063408745907786 1.272864150195915  9.273707394453663 1.1382694405678582  9.461418878138888 1.0166619932407504  C 9.553669733160195 0.9570389245455402  9.610613244997504 0.924688978412923  9.642591949082796 0.9078056051594622  C 9.9050789180094 0.9147714771292201  10.146761878057372 0.9610531442317625  10.36193463430693 1.0455880399651705  C 10.594344985889077 1.136970748927264  10.791685688920131 1.258932392744875  10.948250635550597 1.4076949187561798  C 11.115633630228432 1.566729157404367  11.267324483666936 1.7642527191959738  11.399162353457578 1.994716569016662  C 11.537419770533443 2.2361604956306538  11.648929151316695 2.48704969081598  11.730480823746731 2.7400640505320326  C 11.815717753411333 3.0045307634410188  11.887402381257202 3.2961525406219097  11.943513726063975 3.606782862793134  C 12.000338336165902 3.9221357760131497  12.038855445736653 4.218480201892  12.0576384951625 4.487669534674361  C 12.077015937171545 4.76169955282693  12.086764094886332 5.047890317153441  12.086882967243996 5.338685635856491  C 12.086764094886332 5.896308977405215  11.928178210216362 6.317330539116575  11.601852698575268 6.625717616847946  Z " fill-rule="nonzero" fill="rgba(0, 0, 0, 1)" stroke="none" transform="matrix(1 0 0 1 1 8 )" class="fill" />
    <path d="M 12.968496808530094 4.424504493867973  C 12.947455061483412 4.122965186128411  12.904896003983657 3.794034769597028  12.842246282714854 3.4466860490857303  C 12.77900213983942 3.0967399452932454  12.69756933286548 2.765920394338759  12.600087788283922 2.4635546569459406  C 12.499277575580226 2.151035286825366  12.362446718118093 1.8424121069249104  12.193042778499185 1.546658008530232  C 12.017457037018964 1.239687716760873  11.811081441922564 0.9723874031032778  11.579503264626808 0.7524314113254327  C 11.337344784707593 0.5223217291706636  11.040858101451908 0.33731309563120765  10.698008303308521 0.20236426157410822  C 10.356347246796384 0.06812376284884662  9.9777145783419 0.00011806549683436887  9.57269052800995 0.00011806549683436887  C 9.413629116567167 0.00011806549683436887  9.259798452731497 0.06493605208348707  8.9627174131719 0.25702858660842104  C 8.779880037190354 0.375448287139439  8.566014960586719 0.5124042418488687  8.327303985222306 0.663882288699656  C 8.123187095002598 0.7930459566487477  7.846672275362583 0.9140630764916837  7.505130127841689 1.0236278575539781  C 7.17190957806756 1.1307132415643126  6.833577218700991 1.1850233917265602  6.499524480128756 1.1850233917265602  C 6.165709530515573 1.1850233917265602  5.827377142125574 1.1307132415643126  5.493918832415823 1.0236278575539781  C 5.152733295774932 0.9141811347823721  4.876099625190537 0.7931640221455821  4.672339374874262 0.6640003541964905  C 4.435887089874828 0.5139390933077156  4.22190316232681 0.3769831241859938  4.036331547085611 0.2569105211115867  C 3.7394882674616388 0.06481798658665273  3.585657574602538 0  3.4265961921831853 0  C 3.0214532618834244 0  2.6429394443733196 0.06812377726113873  2.301397296852424 0.2024823270709426  C 1.9587852005978006 0.3371950445466654  1.6621797244445933 0.5222036780861214  1.4197834555663258 0.7525494768222671  C 1.1882052782705708 0.9726235629215307  0.9818296541507398 1.2398058110822916  0.8063628216617591 1.546658008530232  C 0.6371966129550445 1.8424121069249104  0.5002469045485305 2.150917221328532  0.3994366918448342 2.4636727224427752  C 0.3020739909517985 2.766038459835594  0.22064122025714653 3.0967399452932454  0.15739707738171443 3.4466860490857303  C 0.09462845437752619 3.7935625076096904  0.052188313124869976 4.122611018462492  0.03114656607818701 4.424858690358477  C 0.010461437167364706 4.720376628934901  0 5.027937248188432  0 5.338685635856491  C 0 6.146489765197242  0.2585639299888436 6.800454552162812  0.768440111930062 7.282752106731209  C 1.2720156555772992 7.75867412447055  1.9382189951899336 8  2.748623735757265 8  C 2.748623735757265 8  10.251376264242735 8  10.251376264242735 8  C 11.061543244874445 8  11.727746584487079 7.75867412447055  12.231441008102127 7.282752106731209  C 12.741436070011156 6.8008087774779  13 6.146607888343246  13 5.338567570359657  C 12.999881127642336 5.026756593220089  12.989300810152871 4.719195973966558  12.968496808530094 4.424504493867973  Z " stroke-width="0" stroke-dasharray="0" stroke="rgba(121, 121, 121, 1)" fill="none" transform="matrix(1 0 0 1 1 8 )" class="stroke" mask="url(#Clip85)" />
    <path d="M 11.601852698575268 6.625717616847946  C 11.269107668672385 6.940244100414705  10.827349708286848 7.093138918815213  10.251257384274924 7.093138918815213  C 10.251257384274924 7.093138918815213  2.748623735757265 7.093138918815213  2.748623735757265 7.093138918815213  C 2.17241253177753 7.093138918815213  1.7306546004154226 6.940244100414705  1.3980284214569196 6.625835682344781  C 1.0717029098158275 6.317330539116575  0.9131170327560033 5.896190911908381  0.9131170327560033 5.338685635856491  C 0.9131170327560033 5.048716775631282  0.9227462956369765 4.7624079458079365  0.9420048649340673 4.487551469177526  C 0.9607878853364846 4.217889903232411  0.9991861221952829 3.9216635140258123  1.0561296340325914 3.606900928289969  C 1.1123598515513193 3.296034475125076  1.183925599429376 3.0042946612719343  1.2690436563820253 2.740182116028867  C 1.3507141725005845 2.4869316253191456  1.4621047386187433 2.236160495630654  1.600243246703367 1.9945985035198277  C 1.7320811164940098 1.7643707702805165  1.8837719699325128 1.5668472084889091  2.051154964610348 1.4076949187561798  C 2.207719867705671 1.2588143416603328  2.4050606287835836 1.136970748927264  2.637589845821826 1.0455880399651705  C 2.8526436930801427 0.9610531442317625  3.0943266821515447 0.9147714771292201  3.356694771110339 0.9078056051594622  C 3.3886734751956302 0.924688978412923  3.445616987032939 0.9569208374302676  3.537867842054246 1.0166619932407504  C 3.7255793257394703 1.1381513750710237  3.941940852643708 1.2767602971791572  4.1811273478793645 1.4284744461990289  C 4.450747114874628 1.5991971402092342  4.7981143808182605 1.75339067907492  5.21312434844633 1.8864505084195458  C 5.637406953563655 2.022698077354115  6.070130036395559 2.0918844729113477  6.499643360096567 2.0918844729113477  C 6.929156712821005 2.0918844729113477  7.36199864659729 2.022698077354115  7.786043491778994 1.8865685739163802  C 8.201410070287066 1.75327264240267  8.548658514309748 1.5991971546215262  8.818634892185013 1.4282383152053602  C 9.063408745907786 1.272864150195915  9.273707394453663 1.1382694405678582  9.461418878138888 1.0166619932407504  C 9.553669733160195 0.9570389245455402  9.610613244997504 0.924688978412923  9.642591949082796 0.9078056051594622  C 9.9050789180094 0.9147714771292201  10.146761878057372 0.9610531442317625  10.36193463430693 1.0455880399651705  C 10.594344985889077 1.136970748927264  10.791685688920131 1.258932392744875  10.948250635550597 1.4076949187561798  C 11.115633630228432 1.566729157404367  11.267324483666936 1.7642527191959738  11.399162353457578 1.994716569016662  C 11.537419770533443 2.2361604956306538  11.648929151316695 2.48704969081598  11.730480823746731 2.7400640505320326  C 11.815717753411333 3.0045307634410188  11.887402381257202 3.2961525406219097  11.943513726063975 3.606782862793134  C 12.000338336165902 3.9221357760131497  12.038855445736653 4.218480201892  12.0576384951625 4.487669534674361  C 12.077015937171545 4.76169955282693  12.086764094886332 5.047890317153441  12.086882967243996 5.338685635856491  C 12.086764094886332 5.896308977405215  11.928178210216362 6.317330539116575  11.601852698575268 6.625717616847946  Z " stroke-width="0" stroke-dasharray="0" stroke="rgba(121, 121, 121, 1)" fill="none" transform="matrix(1 0 0 1 1 8 )" class="stroke" mask="url(#Clip85)" />
  </g>
</svg>