<?xml version="1.0" encoding="utf-8"?>
<svg version="1.1" xmlns:xlink="http://www.w3.org/1999/xlink" width="17px" height="12px" xmlns="http://www.w3.org/2000/svg">
  <defs>
    <pattern id="BGPattern" patternUnits="userSpaceOnUse" alignment="0 0" imageRepeat="None" />
    <mask fill="white" id="Clip83">
      <path d="M 17 1.539417721148968  C 17 0.6905827991032871  16.32972850650549 0  15.505859375 0  C 15.505859375 0  1.494140625 0  1.494140625 0  C 0.6702714934945107 0  0 0.6905827991032871  0 1.539417721148968  C 0 1.539417721148968  0 10.460582278851033  0 10.460582278851033  C 0 11.309417200896714  0.6702714934945107 12.000000000000004  1.494140625 12.000000000000004  C 1.494140625 12.000000000000004  15.505859375 12.000000000000004  15.505859375 12.000000000000004  C 16.32972850650549 12.000000000000004  17 11.309417200896714  17 10.460582278851033  C 17 10.460582278851033  17 1.539417721148968  17 1.539417721148968  Z M 1.6891426146030426 1  L 15.310857892036438 1  L 15.111439526081085 1.1973590847179467  C 15.111439526081085 1.1973590847179467  9.092808723449707 6.360941966296005  9.092808723449707 6.360941966296005  C 8.749289201572537 6.655620738368448  8.250644396990538 6.655620738368448  7.907191276550293 6.360941966296005  C 7.907191276550293 6.360941966296005  1.888560600578785 1.1973590847179467  1.888560600578785 1.1973590847179467  L 1.6891426146030426 1  Z M 0.99609375 9.336876036589569  L 0.99609375 1.7671830271790916  L 5.899929732084274 5.974343037980851  L 0.99609375 9.336876036589569  Z M 15.993945717811584 10.562799841035968  C 15.947793374536559 10.796962373886679  15.746515629813075 10.973721519234022  15.505859375 10.973721519234022  C 15.505859375 10.973721519234022  1.494140625 10.973721519234022  1.494140625 10.973721519234022  C 1.253484370186925 10.973721519234022  1.0522070529405028 10.796928411767308  1.0060879103839397 10.562834292523053  C 1.0060879103839397 10.562834292523053  6.698597729206085 6.659520477059139  6.698597729206085 6.659520477059139  C 6.698597729206085 6.659520477059139  7.269824117422104 7.149603320705762  7.269824117422104 7.149603320705762  C 7.626226468011737 7.4553658800127796  8.063146719709039 7.608246572425031  8.500033438205719 7.608246572425031  C 8.9369201567024 7.608246572425031  9.373806716874242 7.4553658800127796  9.730242252349854 7.149603320705762  C 9.730242252349854 7.149603320705762  10.301469147205353 6.659520477059139  10.301469147205353 6.659520477059139  C 10.301469147205353 6.659520477059139  15.993945717811584 10.562799841035968  15.993945717811584 10.562799841035968  Z M 16.00390625 1.7671830271790916  L 16.00390625 9.336876036589569  L 11.100070774555206 5.974377489467937  L 16.00390625 1.7671830271790916  Z " fill-rule="evenodd" />
    </mask>
  </defs>
  <g transform="matrix(1 0 0 1 0 -3 )">
    <path d="M 17 1.539417721148968  C 17 0.6905827991032871  16.32972850650549 0  15.505859375 0  C 15.505859375 0  1.494140625 0  1.494140625 0  C 0.6702714934945107 0  0 0.6905827991032871  0 1.539417721148968  C 0 1.539417721148968  0 10.460582278851033  0 10.460582278851033  C 0 11.309417200896714  0.6702714934945107 12.000000000000004  1.494140625 12.000000000000004  C 1.494140625 12.000000000000004  15.505859375 12.000000000000004  15.505859375 12.000000000000004  C 16.32972850650549 12.000000000000004  17 11.309417200896714  17 10.460582278851033  C 17 10.460582278851033  17 1.539417721148968  17 1.539417721148968  Z M 1.6891426146030426 1  L 15.310857892036438 1  L 15.111439526081085 1.1973590847179467  C 15.111439526081085 1.1973590847179467  9.092808723449707 6.360941966296005  9.092808723449707 6.360941966296005  C 8.749289201572537 6.655620738368448  8.250644396990538 6.655620738368448  7.907191276550293 6.360941966296005  C 7.907191276550293 6.360941966296005  1.888560600578785 1.1973590847179467  1.888560600578785 1.1973590847179467  L 1.6891426146030426 1  Z M 0.99609375 9.336876036589569  L 0.99609375 1.7671830271790916  L 5.899929732084274 5.974343037980851  L 0.99609375 9.336876036589569  Z M 15.993945717811584 10.562799841035968  C 15.947793374536559 10.796962373886679  15.746515629813075 10.973721519234022  15.505859375 10.973721519234022  C 15.505859375 10.973721519234022  1.494140625 10.973721519234022  1.494140625 10.973721519234022  C 1.253484370186925 10.973721519234022  1.0522070529405028 10.796928411767308  1.0060879103839397 10.562834292523053  C 1.0060879103839397 10.562834292523053  6.698597729206085 6.659520477059139  6.698597729206085 6.659520477059139  C 6.698597729206085 6.659520477059139  7.269824117422104 7.149603320705762  7.269824117422104 7.149603320705762  C 7.626226468011737 7.4553658800127796  8.063146719709039 7.608246572425031  8.500033438205719 7.608246572425031  C 8.9369201567024 7.608246572425031  9.373806716874242 7.4553658800127796  9.730242252349854 7.149603320705762  C 9.730242252349854 7.149603320705762  10.301469147205353 6.659520477059139  10.301469147205353 6.659520477059139  C 10.301469147205353 6.659520477059139  15.993945717811584 10.562799841035968  15.993945717811584 10.562799841035968  Z M 16.00390625 1.7671830271790916  L 16.00390625 9.336876036589569  L 11.100070774555206 5.974377489467937  L 16.00390625 1.7671830271790916  Z " fill-rule="nonzero" fill="rgba(0, 8, 66, 1)" stroke="none" transform="matrix(1 0 0 1 0 3 )" class="fill" />
    <path d="M 17 1.539417721148968  C 17 0.6905827991032871  16.32972850650549 0  15.505859375 0  C 15.505859375 0  1.494140625 0  1.494140625 0  C 0.6702714934945107 0  0 0.6905827991032871  0 1.539417721148968  C 0 1.539417721148968  0 10.460582278851033  0 10.460582278851033  C 0 11.309417200896714  0.6702714934945107 12.000000000000004  1.494140625 12.000000000000004  C 1.494140625 12.000000000000004  15.505859375 12.000000000000004  15.505859375 12.000000000000004  C 16.32972850650549 12.000000000000004  17 11.309417200896714  17 10.460582278851033  C 17 10.460582278851033  17 1.539417721148968  17 1.539417721148968  Z " stroke-width="0" stroke-dasharray="0" stroke="rgba(121, 121, 121, 1)" fill="none" transform="matrix(1 0 0 1 0 3 )" class="stroke" mask="url(#Clip83)" />
    <path d="M 1.6891426146030426 1  L 15.310857892036438 1  L 15.111439526081085 1.1973590847179467  C 15.111439526081085 1.1973590847179467  9.092808723449707 6.360941966296005  9.092808723449707 6.360941966296005  C 8.749289201572537 6.655620738368448  8.250644396990538 6.655620738368448  7.907191276550293 6.360941966296005  C 7.907191276550293 6.360941966296005  1.888560600578785 1.1973590847179467  1.888560600578785 1.1973590847179467  L 1.6891426146030426 1  Z " stroke-width="0" stroke-dasharray="0" stroke="rgba(121, 121, 121, 1)" fill="none" transform="matrix(1 0 0 1 0 3 )" class="stroke" mask="url(#Clip83)" />
    <path d="M 0.99609375 9.336876036589569  L 0.99609375 1.7671830271790916  L 5.899929732084274 5.974343037980851  L 0.99609375 9.336876036589569  Z " stroke-width="0" stroke-dasharray="0" stroke="rgba(121, 121, 121, 1)" fill="none" transform="matrix(1 0 0 1 0 3 )" class="stroke" mask="url(#Clip83)" />
    <path d="M 15.993945717811584 10.562799841035968  C 15.947793374536559 10.796962373886679  15.746515629813075 10.973721519234022  15.505859375 10.973721519234022  C 15.505859375 10.973721519234022  1.494140625 10.973721519234022  1.494140625 10.973721519234022  C 1.253484370186925 10.973721519234022  1.0522070529405028 10.796928411767308  1.0060879103839397 10.562834292523053  C 1.0060879103839397 10.562834292523053  6.698597729206085 6.659520477059139  6.698597729206085 6.659520477059139  C 6.698597729206085 6.659520477059139  7.269824117422104 7.149603320705762  7.269824117422104 7.149603320705762  C 7.626226468011737 7.4553658800127796  8.063146719709039 7.608246572425031  8.500033438205719 7.608246572425031  C 8.9369201567024 7.608246572425031  9.373806716874242 7.4553658800127796  9.730242252349854 7.149603320705762  C 9.730242252349854 7.149603320705762  10.301469147205353 6.659520477059139  10.301469147205353 6.659520477059139  C 10.301469147205353 6.659520477059139  15.993945717811584 10.562799841035968  15.993945717811584 10.562799841035968  Z " stroke-width="0" stroke-dasharray="0" stroke="rgba(121, 121, 121, 1)" fill="none" transform="matrix(1 0 0 1 0 3 )" class="stroke" mask="url(#Clip83)" />
    <path d="M 16.00390625 1.7671830271790916  L 16.00390625 9.336876036589569  L 11.100070774555206 5.974377489467937  L 16.00390625 1.7671830271790916  Z " stroke-width="0" stroke-dasharray="0" stroke="rgba(121, 121, 121, 1)" fill="none" transform="matrix(1 0 0 1 0 3 )" class="stroke" mask="url(#Clip83)" />
  </g>
</svg>