<?xml version="1.0" encoding="utf-8"?>
<svg version="1.1" xmlns:xlink="http://www.w3.org/1999/xlink" width="3px" height="4px" xmlns="http://www.w3.org/2000/svg">
  <defs>
    <pattern id="BGPattern" patternUnits="userSpaceOnUse" alignment="0 0" imageRepeat="None" />
    <mask fill="white" id="Clip82">
      <path d="M 1.9167781079100883 2.601656090796944  C 2.710931204334159 2.3992642092017644  3.172454321867125 1.6632935201109977  2.9396136320547277 0.9604416990793069  C 2.7566673686927494 0.39006457822016566  2.170408165207471 0  1.5009911547357129 0  C 0.6735751337797187 0  0 0.5924564598153449  0 1.3284269383432692  C 0 1.920883187595771  0.4407344241410547 2.4397425820114194  1.085204201561337 2.601656090796944  C 1.085204201561337 2.601656090796944  1.085204201561337 3.6320147607360376  1.085204201561337 3.6320147607360376  C 1.085204201561337 3.834406642331217  1.2723083304898062 4  1.5009911547357129 4  C 1.7296739789816193 4  1.9167781079100883 3.834406642331217  1.9167781079100883 3.6320147607360376  C 1.9167781079100883 3.6320147607360376  1.9167781079100883 2.601656090796944  1.9167781079100883 2.601656090796944  Z M 2.1704077686821326 1.3247468613502638  C 2.1704077686821326 1.652253710257667  1.8710415271998935 1.9172033211656085  1.5009911547357129 1.9172033211656085  C 1.1309407822715318 1.9172033211656085  0.8315739063487515 1.652253710257667  0.8315739063487515 1.3247468613502638  C 0.8315739063487515 0.9972400124428602  1.1309407822715318 0.732290401534919  1.5009911547357129 0.732290401534919  C 1.8710415271998935 0.732290401534919  2.1704077686821326 0.9972400124428602  2.1704077686821326 1.3247468613502638  Z " fill-rule="evenodd" />
    </mask>
  </defs>
  <g transform="matrix(1 0 0 1 -7 -11 )">
    <path d="M 1.9167781079100883 2.601656090796944  C 2.710931204334159 2.3992642092017644  3.172454321867125 1.6632935201109977  2.9396136320547277 0.9604416990793069  C 2.7566673686927494 0.39006457822016566  2.170408165207471 0  1.5009911547357129 0  C 0.6735751337797187 0  0 0.5924564598153449  0 1.3284269383432692  C 0 1.920883187595771  0.4407344241410547 2.4397425820114194  1.085204201561337 2.601656090796944  C 1.085204201561337 2.601656090796944  1.085204201561337 3.6320147607360376  1.085204201561337 3.6320147607360376  C 1.085204201561337 3.834406642331217  1.2723083304898062 4  1.5009911547357129 4  C 1.7296739789816193 4  1.9167781079100883 3.834406642331217  1.9167781079100883 3.6320147607360376  C 1.9167781079100883 3.6320147607360376  1.9167781079100883 2.601656090796944  1.9167781079100883 2.601656090796944  Z M 2.1704077686821326 1.3247468613502638  C 2.1704077686821326 1.652253710257667  1.8710415271998935 1.9172033211656085  1.5009911547357129 1.9172033211656085  C 1.1309407822715318 1.9172033211656085  0.8315739063487515 1.652253710257667  0.8315739063487515 1.3247468613502638  C 0.8315739063487515 0.9972400124428602  1.1309407822715318 0.732290401534919  1.5009911547357129 0.732290401534919  C 1.8710415271998935 0.732290401534919  2.1704077686821326 0.9972400124428602  2.1704077686821326 1.3247468613502638  Z " fill-rule="nonzero" fill="rgba(0, 0, 0, 1)" stroke="none" transform="matrix(1 0 0 1 7 11 )" class="fill" />
    <path d="M 1.9167781079100883 2.601656090796944  C 2.710931204334159 2.3992642092017644  3.172454321867125 1.6632935201109977  2.9396136320547277 0.9604416990793069  C 2.7566673686927494 0.39006457822016566  2.170408165207471 0  1.5009911547357129 0  C 0.6735751337797187 0  0 0.5924564598153449  0 1.3284269383432692  C 0 1.920883187595771  0.4407344241410547 2.4397425820114194  1.085204201561337 2.601656090796944  C 1.085204201561337 2.601656090796944  1.085204201561337 3.6320147607360376  1.085204201561337 3.6320147607360376  C 1.085204201561337 3.834406642331217  1.2723083304898062 4  1.5009911547357129 4  C 1.7296739789816193 4  1.9167781079100883 3.834406642331217  1.9167781079100883 3.6320147607360376  C 1.9167781079100883 3.6320147607360376  1.9167781079100883 2.601656090796944  1.9167781079100883 2.601656090796944  Z " stroke-width="0" stroke-dasharray="0" stroke="rgba(121, 121, 121, 1)" fill="none" transform="matrix(1 0 0 1 7 11 )" class="stroke" mask="url(#Clip82)" />
    <path d="M 2.1704077686821326 1.3247468613502638  C 2.1704077686821326 1.652253710257667  1.8710415271998935 1.9172033211656085  1.5009911547357129 1.9172033211656085  C 1.1309407822715318 1.9172033211656085  0.8315739063487515 1.652253710257667  0.8315739063487515 1.3247468613502638  C 0.8315739063487515 0.9972400124428602  1.1309407822715318 0.732290401534919  1.5009911547357129 0.732290401534919  C 1.8710415271998935 0.732290401534919  2.1704077686821326 0.9972400124428602  2.1704077686821326 1.3247468613502638  Z " stroke-width="0" stroke-dasharray="0" stroke="rgba(121, 121, 121, 1)" fill="none" transform="matrix(1 0 0 1 7 11 )" class="stroke" mask="url(#Clip82)" />
  </g>
</svg>