<?xml version="1.0" encoding="utf-8"?>
<svg version="1.1" xmlns:xlink="http://www.w3.org/1999/xlink" width="9px" height="9px" xmlns="http://www.w3.org/2000/svg">
  <defs>
    <pattern id="BGPattern" patternUnits="userSpaceOnUse" alignment="0 0" imageRepeat="None" />
    <mask fill="white" id="Clip90">
      <path d="M 4.4999997317790825 0  C 3.3069424961175025 0.0013585078268079087  2.163139203973961 0.4759008586406708  1.31951977726935 1.3195202350616455  C 0.4759003505647391 2.1631396114826202  0.00135850790778129 3.3069428354501724  0 4.5  C 0 5.693474248051643  0.47410615379250975 6.8380681201815605  1.3180198858988217 7.681981801986694  C 2.161933618005134 8.525895483791828  3.3065254125908266 9  4.4999997317790825 9  C 5.693474050967339 9  6.8380669184367004 8.525895483791828  7.681980650543013 7.681981801986694  C 8.525894382649325 6.8380681201815605  9.000000000000002 5.693474248051643  9 4.5  C 8.998660064033343 3.3069370687007904  8.524124593980586 2.1631221771240234  7.680501143962212 1.3194987773895264  C 6.836877693943839 0.4758753776550293  5.69306273419039 0.0013399358867900446  4.4999997317790825 0  Z M 4.4999997317790825 6.75  C 4.054991758912311 6.75  3.6199774962650237 6.618039624765515  3.2499668747166917 6.370806455612183  C 2.87995625316836 6.12357328645885  2.59156871015243 5.772172205150127  2.421271528081389 5.361038446426392  C 2.2509743460103477 4.949904687702656  2.2064168417925742 4.497504103928804  2.2932335909148214 4.061046838760376  C 2.3800503400370685 3.6245895735919476  2.594341645052531 3.2236783169209957  2.9090098088389515 2.909010171890259  C 3.2236779726253726 2.594342026859522  3.6245892531924997 2.38004966173321  4.06104654437581 2.2932329177856445  C 4.49750383555912 2.206416173838079  4.94990444629815 2.2509736754000187  5.3610382295273675 2.4212708473205566  C 5.772172012756586 2.5915680192410946  6.123574187894118 2.879957690834999  6.370807371783696 3.2499682903289795  C 6.618040555673275 3.61997888982296  6.74999986588954 4.05499205365777  6.749999865889541 4.5  C 6.749292757101694 5.0965200662612915  6.5120133466728545 5.668405115604401  6.090209668291192 6.0902087688446045  C 5.6684059899095285 6.512012422084808  5.0965198335957425 6.749292891254299  4.4999997317790825 6.75  Z " fill-rule="evenodd" />
    </mask>
  </defs>
  <g transform="matrix(1 0 0 1 -8 -27 )">
    <path d="M 4.4999997317790825 0  C 3.3069424961175025 0.0013585078268079087  2.163139203973961 0.4759008586406708  1.31951977726935 1.3195202350616455  C 0.4759003505647391 2.1631396114826202  0.00135850790778129 3.3069428354501724  0 4.5  C 0 5.693474248051643  0.47410615379250975 6.8380681201815605  1.3180198858988217 7.681981801986694  C 2.161933618005134 8.525895483791828  3.3065254125908266 9  4.4999997317790825 9  C 5.693474050967339 9  6.8380669184367004 8.525895483791828  7.681980650543013 7.681981801986694  C 8.525894382649325 6.8380681201815605  9.000000000000002 5.693474248051643  9 4.5  C 8.998660064033343 3.3069370687007904  8.524124593980586 2.1631221771240234  7.680501143962212 1.3194987773895264  C 6.836877693943839 0.4758753776550293  5.69306273419039 0.0013399358867900446  4.4999997317790825 0  Z M 4.4999997317790825 6.75  C 4.054991758912311 6.75  3.6199774962650237 6.618039624765515  3.2499668747166917 6.370806455612183  C 2.87995625316836 6.12357328645885  2.59156871015243 5.772172205150127  2.421271528081389 5.361038446426392  C 2.2509743460103477 4.949904687702656  2.2064168417925742 4.497504103928804  2.2932335909148214 4.061046838760376  C 2.3800503400370685 3.6245895735919476  2.594341645052531 3.2236783169209957  2.9090098088389515 2.909010171890259  C 3.2236779726253726 2.594342026859522  3.6245892531924997 2.38004966173321  4.06104654437581 2.2932329177856445  C 4.49750383555912 2.206416173838079  4.94990444629815 2.2509736754000187  5.3610382295273675 2.4212708473205566  C 5.772172012756586 2.5915680192410946  6.123574187894118 2.879957690834999  6.370807371783696 3.2499682903289795  C 6.618040555673275 3.61997888982296  6.74999986588954 4.05499205365777  6.749999865889541 4.5  C 6.749292757101694 5.0965200662612915  6.5120133466728545 5.668405115604401  6.090209668291192 6.0902087688446045  C 5.6684059899095285 6.512012422084808  5.0965198335957425 6.749292891254299  4.4999997317790825 6.75  Z " fill-rule="nonzero" fill="rgba(78, 115, 223, 1)" stroke="none" transform="matrix(1 0 0 1 8 27 )" class="fill" />
    <path d="M 4.4999997317790825 0  C 3.3069424961175025 0.0013585078268079087  2.163139203973961 0.4759008586406708  1.31951977726935 1.3195202350616455  C 0.4759003505647391 2.1631396114826202  0.00135850790778129 3.3069428354501724  0 4.5  C 0 5.693474248051643  0.47410615379250975 6.8380681201815605  1.3180198858988217 7.681981801986694  C 2.161933618005134 8.525895483791828  3.3065254125908266 9  4.4999997317790825 9  C 5.693474050967339 9  6.8380669184367004 8.525895483791828  7.681980650543013 7.681981801986694  C 8.525894382649325 6.8380681201815605  9.000000000000002 5.693474248051643  9 4.5  C 8.998660064033343 3.3069370687007904  8.524124593980586 2.1631221771240234  7.680501143962212 1.3194987773895264  C 6.836877693943839 0.4758753776550293  5.69306273419039 0.0013399358867900446  4.4999997317790825 0  Z " stroke-width="0" stroke-dasharray="0" stroke="rgba(121, 121, 121, 1)" fill="none" transform="matrix(1 0 0 1 8 27 )" class="stroke" mask="url(#Clip90)" />
    <path d="M 4.4999997317790825 6.75  C 4.054991758912311 6.75  3.6199774962650237 6.618039624765515  3.2499668747166917 6.370806455612183  C 2.87995625316836 6.12357328645885  2.59156871015243 5.772172205150127  2.421271528081389 5.361038446426392  C 2.2509743460103477 4.949904687702656  2.2064168417925742 4.497504103928804  2.2932335909148214 4.061046838760376  C 2.3800503400370685 3.6245895735919476  2.594341645052531 3.2236783169209957  2.9090098088389515 2.909010171890259  C 3.2236779726253726 2.594342026859522  3.6245892531924997 2.38004966173321  4.06104654437581 2.2932329177856445  C 4.49750383555912 2.206416173838079  4.94990444629815 2.2509736754000187  5.3610382295273675 2.4212708473205566  C 5.772172012756586 2.5915680192410946  6.123574187894118 2.879957690834999  6.370807371783696 3.2499682903289795  C 6.618040555673275 3.61997888982296  6.74999986588954 4.05499205365777  6.749999865889541 4.5  C 6.749292757101694 5.0965200662612915  6.5120133466728545 5.668405115604401  6.090209668291192 6.0902087688446045  C 5.6684059899095285 6.512012422084808  5.0965198335957425 6.749292891254299  4.4999997317790825 6.75  Z " stroke-width="0" stroke-dasharray="0" stroke="rgba(121, 121, 121, 1)" fill="none" transform="matrix(1 0 0 1 8 27 )" class="stroke" mask="url(#Clip90)" />
  </g>
</svg>