<?xml version="1.0" encoding="utf-8"?>
<svg version="1.1" xmlns:xlink="http://www.w3.org/1999/xlink" width="33px" height="21px" xmlns="http://www.w3.org/2000/svg">
  <defs>
    <pattern id="BGPattern" patternUnits="userSpaceOnUse" alignment="0 0" imageRepeat="None" />
    <mask fill="white" id="Clip89">
      <path d="M 33 5.2519193694158455  L 9.9 5.2519193694158455  L 9.9 7.351663453493733  L 30.800000000000004 7.351663453493733  L 30.800000000000004 11.508172565027419  L 28.359375000000004 19  L 9.207825469970704 19  L 6.45782494544983 0  L 0 0  L 0 2.0997440840778876  L 4.542175054550171 2.0997440840778876  L 7.292175054550172 21.000000000000004  L 29.9727991104126 21.000000000000004  L 33 11.831139259722336  L 33 5.2519193694158455  Z " fill-rule="evenodd" />
    </mask>
  </defs>
  <g transform="matrix(1 0 0 1 -4 -3 )">
    <path d="M 33 5.2519193694158455  L 9.9 5.2519193694158455  L 9.9 7.351663453493733  L 30.800000000000004 7.351663453493733  L 30.800000000000004 11.508172565027419  L 28.359375000000004 19  L 9.207825469970704 19  L 6.45782494544983 0  L 0 0  L 0 2.0997440840778876  L 4.542175054550171 2.0997440840778876  L 7.292175054550172 21.000000000000004  L 29.9727991104126 21.000000000000004  L 33 11.831139259722336  L 33 5.2519193694158455  Z " fill-rule="nonzero" fill="rgba(78, 115, 223, 1)" stroke="none" transform="matrix(1 0 0 1 4 3 )" class="fill" />
    <path d="M 33 5.2519193694158455  L 9.9 5.2519193694158455  L 9.9 7.351663453493733  L 30.800000000000004 7.351663453493733  L 30.800000000000004 11.508172565027419  L 28.359375000000004 19  L 9.207825469970704 19  L 6.45782494544983 0  L 0 0  L 0 2.0997440840778876  L 4.542175054550171 2.0997440840778876  L 7.292175054550172 21.000000000000004  L 29.9727991104126 21.000000000000004  L 33 11.831139259722336  L 33 5.2519193694158455  Z " stroke-width="0" stroke-dasharray="0" stroke="rgba(121, 121, 121, 1)" fill="none" transform="matrix(1 0 0 1 4 3 )" class="stroke" mask="url(#Clip89)" />
  </g>
</svg>