<?xml version="1.0" encoding="utf-8"?>
<svg version="1.1" xmlns:xlink="http://www.w3.org/1999/xlink" width="10px" height="9px" xmlns="http://www.w3.org/2000/svg">
  <defs>
    <pattern id="BGPattern" patternUnits="userSpaceOnUse" alignment="0 0" imageRepeat="None" />
    <mask fill="white" id="Clip56">
      <path d="M 5 0  C 3.6743809282779694 0.0013585078268079087  2.4034884572029114 0.4759008586406708  1.4661335945129395 1.3195202350616455  C 0.5287787318229675 2.1631396114826202  0.0015094531408976763 3.3069428354501724  0 4.5  C 0 5.693474248051643  0.5267827957868576 6.8380681201815605  1.4644646644592285 7.681981801986694  C 2.4021465331315994 8.525895483791828  3.6739175021648407 9  5 9  C 6.326082497835159 9  7.59785108268261 8.525895483791828  8.53553295135498 7.681981801986694  C 9.473214820027351 6.8380681201815605  10 5.693474248051643  10 4.5  C 9.99851118234801 3.3069370687007904  9.47124719619751 2.1631221771240234  8.53388786315918 1.3194987773895264  C 7.59652853012085 0.4758753776550293  6.325625479221344 0.0013399358867900446  5 0  Z M 5 6.75  C 4.505546726286411 6.75  4.022196382284164 6.618039624765515  3.6110734939575195 6.370806455612183  C 3.1999506056308746 6.12357328645885  2.879520021378994 5.772172205150127  2.690300941467285 5.361038446426392  C 2.5010818615555763 4.949904687702656  2.4515735264867544 4.497504103928804  2.548036575317383 4.061046838760376  C 2.644499624148011 3.6245895735919476  2.8826022520661354 3.2236783169209957  3.2322335243225098 2.909010171890259  C 3.581864796578884 2.594342026859522  4.027321748435497 2.38004966173321  4.512274265289307 2.2932329177856445  C 4.997226782143116 2.206416173838079  5.499891713261604 2.2509736754000187  5.956707000732422 2.4212708473205566  C 6.413522288203239 2.5915680192410946  6.803970318287611 2.879957690834999  7.078673839569092 3.2499682903289795  C 7.353377360850573 3.61997888982296  7.5 4.05499205365777  7.5 4.5  C 7.499214323615888 5.0965200662612915  7.235569357872009 5.668405115604401  6.7668986320495605 6.0902087688446045  C 6.298227906227112 6.512012422084808  5.662800073623657 6.749292891254299  5 6.75  Z " fill-rule="evenodd" />
    </mask>
  </defs>
  <g transform="matrix(1 0 0 1 -25 -27 )">
    <path d="M 5 0  C 3.6743809282779694 0.0013585078268079087  2.4034884572029114 0.4759008586406708  1.4661335945129395 1.3195202350616455  C 0.5287787318229675 2.1631396114826202  0.0015094531408976763 3.3069428354501724  0 4.5  C 0 5.693474248051643  0.5267827957868576 6.8380681201815605  1.4644646644592285 7.681981801986694  C 2.4021465331315994 8.525895483791828  3.6739175021648407 9  5 9  C 6.326082497835159 9  7.59785108268261 8.525895483791828  8.53553295135498 7.681981801986694  C 9.473214820027351 6.8380681201815605  10 5.693474248051643  10 4.5  C 9.99851118234801 3.3069370687007904  9.47124719619751 2.1631221771240234  8.53388786315918 1.3194987773895264  C 7.59652853012085 0.4758753776550293  6.325625479221344 0.0013399358867900446  5 0  Z M 5 6.75  C 4.505546726286411 6.75  4.022196382284164 6.618039624765515  3.6110734939575195 6.370806455612183  C 3.1999506056308746 6.12357328645885  2.879520021378994 5.772172205150127  2.690300941467285 5.361038446426392  C 2.5010818615555763 4.949904687702656  2.4515735264867544 4.497504103928804  2.548036575317383 4.061046838760376  C 2.644499624148011 3.6245895735919476  2.8826022520661354 3.2236783169209957  3.2322335243225098 2.909010171890259  C 3.581864796578884 2.594342026859522  4.027321748435497 2.38004966173321  4.512274265289307 2.2932329177856445  C 4.997226782143116 2.206416173838079  5.499891713261604 2.2509736754000187  5.956707000732422 2.4212708473205566  C 6.413522288203239 2.5915680192410946  6.803970318287611 2.879957690834999  7.078673839569092 3.2499682903289795  C 7.353377360850573 3.61997888982296  7.5 4.05499205365777  7.5 4.5  C 7.499214323615888 5.0965200662612915  7.235569357872009 5.668405115604401  6.7668986320495605 6.0902087688446045  C 6.298227906227112 6.512012422084808  5.662800073623657 6.749292891254299  5 6.75  Z " fill-rule="nonzero" fill="rgba(78, 115, 223, 1)" stroke="none" transform="matrix(1 0 0 1 25 27 )" class="fill" />
    <path d="M 5 0  C 3.6743809282779694 0.0013585078268079087  2.4034884572029114 0.4759008586406708  1.4661335945129395 1.3195202350616455  C 0.5287787318229675 2.1631396114826202  0.0015094531408976763 3.3069428354501724  0 4.5  C 0 5.693474248051643  0.5267827957868576 6.8380681201815605  1.4644646644592285 7.681981801986694  C 2.4021465331315994 8.525895483791828  3.6739175021648407 9  5 9  C 6.326082497835159 9  7.59785108268261 8.525895483791828  8.53553295135498 7.681981801986694  C 9.473214820027351 6.8380681201815605  10 5.693474248051643  10 4.5  C 9.99851118234801 3.3069370687007904  9.47124719619751 2.1631221771240234  8.53388786315918 1.3194987773895264  C 7.59652853012085 0.4758753776550293  6.325625479221344 0.0013399358867900446  5 0  Z " stroke-width="0" stroke-dasharray="0" stroke="rgba(121, 121, 121, 1)" fill="none" transform="matrix(1 0 0 1 25 27 )" class="stroke" mask="url(#Clip56)" />
    <path d="M 5 6.75  C 4.505546726286411 6.75  4.022196382284164 6.618039624765515  3.6110734939575195 6.370806455612183  C 3.1999506056308746 6.12357328645885  2.879520021378994 5.772172205150127  2.690300941467285 5.361038446426392  C 2.5010818615555763 4.949904687702656  2.4515735264867544 4.497504103928804  2.548036575317383 4.061046838760376  C 2.644499624148011 3.6245895735919476  2.8826022520661354 3.2236783169209957  3.2322335243225098 2.909010171890259  C 3.581864796578884 2.594342026859522  4.027321748435497 2.38004966173321  4.512274265289307 2.2932329177856445  C 4.997226782143116 2.206416173838079  5.499891713261604 2.2509736754000187  5.956707000732422 2.4212708473205566  C 6.413522288203239 2.5915680192410946  6.803970318287611 2.879957690834999  7.078673839569092 3.2499682903289795  C 7.353377360850573 3.61997888982296  7.5 4.05499205365777  7.5 4.5  C 7.499214323615888 5.0965200662612915  7.235569357872009 5.668405115604401  6.7668986320495605 6.0902087688446045  C 6.298227906227112 6.512012422084808  5.662800073623657 6.749292891254299  5 6.75  Z " stroke-width="0" stroke-dasharray="0" stroke="rgba(121, 121, 121, 1)" fill="none" transform="matrix(1 0 0 1 25 27 )" class="stroke" mask="url(#Clip56)" />
  </g>
</svg>