<?xml version="1.0" encoding="utf-8"?>
<svg version="1.1" xmlns:xlink="http://www.w3.org/1999/xlink" width="9px" height="8px" xmlns="http://www.w3.org/2000/svg">
  <defs>
    <pattern id="BGPattern" patternUnits="userSpaceOnUse" alignment="0 0" imageRepeat="None" />
    <mask fill="white" id="Clip77">
      <path d="M 4.499999731779082 0  C 3.306942496117502 0.001207562512718141  2.163139203973961 0.423022985458374  1.31951977726935 1.1729068756103516  C 0.4759003505647392 1.922790765762329  0.00135850790778129 2.9395047426223755  0 4  C 0 5.060865998268127  0.47410615379250975 6.0782827734947205  1.3180198858988217 6.828428268432617  C 2.161933618005133 7.578573763370514  3.306525412590826 8  4.499999731779082 8  C 5.693474050967337 8  6.8380669184367004 7.578573763370514  7.681980650543013 6.828428268432617  C 8.525894382649325 6.0782827734947205  9.000000000000002 5.060865998268127  9 4  C 8.998660064033343 2.939499616622925  8.524124593980586 1.9227752685546875  7.680501143962212 1.1728878021240234  C 6.83687769394384 0.4230003356933594  5.693062734190388 0.0011910541215911508  4.499999731779082 0  Z M 4.499999731779082 6  C 4.05499175891231 6  3.6199774962650233 5.882701888680458  3.249966874716691 5.662939071655273  C 2.8799562531683587 5.443176254630089  2.59156871015243 5.130819737911224  2.421271528081389 4.76536750793457  C 2.2509743460103473 4.399915277957916  2.2064168417925742 3.997781425714493  2.293233590914821 3.6098194122314453  C 2.380050340037068 3.221857398748398  2.5943416450525305 2.8654918372631073  2.9090098088389515 2.585786819458008  C 3.223677972625373 2.3060818016529083  3.6245892531924997 2.115599699318409  4.0610465443758095 2.0384292602539062  C 4.49750383555912 1.9612588211894035  4.949904446298149 2.000865489244461  5.361038229527367 2.152240753173828  C 5.772172012756586 2.303616017103195  6.123574187894116 2.5599623918533325  6.3708073717836955 2.8888607025146484  C 6.618040555673274 3.2177590131759644  6.7499998658895395 3.604437381029129  6.74999986588954 4  C 6.749292757101693 4.530240058898926  6.512013346672853 5.0385823249816895  6.090209668291191 5.413518905639648  C 5.668405989909528 5.788455486297607  5.0965198335957425 5.9993714588927105  4.499999731779082 6  Z " fill-rule="evenodd" />
    </mask>
  </defs>
  <g transform="matrix(1 0 0 1 -8 -22 )">
    <path d="M 4.499999731779082 0  C 3.306942496117502 0.001207562512718141  2.163139203973961 0.423022985458374  1.31951977726935 1.1729068756103516  C 0.4759003505647392 1.922790765762329  0.00135850790778129 2.9395047426223755  0 4  C 0 5.060865998268127  0.47410615379250975 6.0782827734947205  1.3180198858988217 6.828428268432617  C 2.161933618005133 7.578573763370514  3.306525412590826 8  4.499999731779082 8  C 5.693474050967337 8  6.8380669184367004 7.578573763370514  7.681980650543013 6.828428268432617  C 8.525894382649325 6.0782827734947205  9.000000000000002 5.060865998268127  9 4  C 8.998660064033343 2.939499616622925  8.524124593980586 1.9227752685546875  7.680501143962212 1.1728878021240234  C 6.83687769394384 0.4230003356933594  5.693062734190388 0.0011910541215911508  4.499999731779082 0  Z M 4.499999731779082 6  C 4.05499175891231 6  3.6199774962650233 5.882701888680458  3.249966874716691 5.662939071655273  C 2.8799562531683587 5.443176254630089  2.59156871015243 5.130819737911224  2.421271528081389 4.76536750793457  C 2.2509743460103473 4.399915277957916  2.2064168417925742 3.997781425714493  2.293233590914821 3.6098194122314453  C 2.380050340037068 3.221857398748398  2.5943416450525305 2.8654918372631073  2.9090098088389515 2.585786819458008  C 3.223677972625373 2.3060818016529083  3.6245892531924997 2.115599699318409  4.0610465443758095 2.0384292602539062  C 4.49750383555912 1.9612588211894035  4.949904446298149 2.000865489244461  5.361038229527367 2.152240753173828  C 5.772172012756586 2.303616017103195  6.123574187894116 2.5599623918533325  6.3708073717836955 2.8888607025146484  C 6.618040555673274 3.2177590131759644  6.7499998658895395 3.604437381029129  6.74999986588954 4  C 6.749292757101693 4.530240058898926  6.512013346672853 5.0385823249816895  6.090209668291191 5.413518905639648  C 5.668405989909528 5.788455486297607  5.0965198335957425 5.9993714588927105  4.499999731779082 6  Z " fill-rule="nonzero" fill="rgba(78, 115, 223, 1)" stroke="none" transform="matrix(1 0 0 1 8 22 )" class="fill" />
    <path d="M 4.499999731779082 0  C 3.306942496117502 0.001207562512718141  2.163139203973961 0.423022985458374  1.31951977726935 1.1729068756103516  C 0.4759003505647392 1.922790765762329  0.00135850790778129 2.9395047426223755  0 4  C 0 5.060865998268127  0.47410615379250975 6.0782827734947205  1.3180198858988217 6.828428268432617  C 2.161933618005133 7.578573763370514  3.306525412590826 8  4.499999731779082 8  C 5.693474050967337 8  6.8380669184367004 7.578573763370514  7.681980650543013 6.828428268432617  C 8.525894382649325 6.0782827734947205  9.000000000000002 5.060865998268127  9 4  C 8.998660064033343 2.939499616622925  8.524124593980586 1.9227752685546875  7.680501143962212 1.1728878021240234  C 6.83687769394384 0.4230003356933594  5.693062734190388 0.0011910541215911508  4.499999731779082 0  Z " stroke-width="0" stroke-dasharray="0" stroke="rgba(121, 121, 121, 1)" fill="none" transform="matrix(1 0 0 1 8 22 )" class="stroke" mask="url(#Clip77)" />
    <path d="M 4.499999731779082 6  C 4.05499175891231 6  3.6199774962650233 5.882701888680458  3.249966874716691 5.662939071655273  C 2.8799562531683587 5.443176254630089  2.59156871015243 5.130819737911224  2.421271528081389 4.76536750793457  C 2.2509743460103473 4.399915277957916  2.2064168417925742 3.997781425714493  2.293233590914821 3.6098194122314453  C 2.380050340037068 3.221857398748398  2.5943416450525305 2.8654918372631073  2.9090098088389515 2.585786819458008  C 3.223677972625373 2.3060818016529083  3.6245892531924997 2.115599699318409  4.0610465443758095 2.0384292602539062  C 4.49750383555912 1.9612588211894035  4.949904446298149 2.000865489244461  5.361038229527367 2.152240753173828  C 5.772172012756586 2.303616017103195  6.123574187894116 2.5599623918533325  6.3708073717836955 2.8888607025146484  C 6.618040555673274 3.2177590131759644  6.7499998658895395 3.604437381029129  6.74999986588954 4  C 6.749292757101693 4.530240058898926  6.512013346672853 5.0385823249816895  6.090209668291191 5.413518905639648  C 5.668405989909528 5.788455486297607  5.0965198335957425 5.9993714588927105  4.499999731779082 6  Z " stroke-width="0" stroke-dasharray="0" stroke="rgba(121, 121, 121, 1)" fill="none" transform="matrix(1 0 0 1 8 22 )" class="stroke" mask="url(#Clip77)" />
  </g>
</svg>