<?xml version="1.0" encoding="utf-8"?>
<svg version="1.1" xmlns:xlink="http://www.w3.org/1999/xlink" width="35px" height="19px" xmlns="http://www.w3.org/2000/svg">
  <defs>
    <pattern id="BGPattern" patternUnits="userSpaceOnUse" alignment="0 0" imageRepeat="None" />
    <mask fill="white" id="Clip76">
      <path d="M 35 5  L 10.5 5  L 10.5 7  L 32.666666666666664 7  L 32.666666666666664 10.4121561302629  L 30.078125 17  L 9.765875498453777 17  L 6.849208275477092 0  L 0 0  L 0 1.8997684570228504  L 4.817458391189575 1.8997684570228504  L 7.734125057856242 19  L 31.789332389831543 19  L 35 10.704364092129733  L 35 5  Z " fill-rule="evenodd" />
    </mask>
  </defs>
  <g transform="matrix(1 0 0 1 -1 -1 )">
    <path d="M 35 5  L 10.5 5  L 10.5 7  L 32.666666666666664 7  L 32.666666666666664 10.4121561302629  L 30.078125 17  L 9.765875498453777 17  L 6.849208275477092 0  L 0 0  L 0 1.8997684570228504  L 4.817458391189575 1.8997684570228504  L 7.734125057856242 19  L 31.789332389831543 19  L 35 10.704364092129733  L 35 5  Z " fill-rule="nonzero" fill="rgba(78, 115, 223, 1)" stroke="none" transform="matrix(1 0 0 1 1 1 )" class="fill" />
    <path d="M 35 5  L 10.5 5  L 10.5 7  L 32.666666666666664 7  L 32.666666666666664 10.4121561302629  L 30.078125 17  L 9.765875498453777 17  L 6.849208275477092 0  L 0 0  L 0 1.8997684570228504  L 4.817458391189575 1.8997684570228504  L 7.734125057856242 19  L 31.789332389831543 19  L 35 10.704364092129733  L 35 5  Z " stroke-width="0" stroke-dasharray="0" stroke="rgba(121, 121, 121, 1)" fill="none" transform="matrix(1 0 0 1 1 1 )" class="stroke" mask="url(#Clip76)" />
  </g>
</svg>